<?xml version="1.0" encoding="UTF-8" standalone="no"?>
<svg
   width="512"
   height="512"
   viewBox="0 0 512 512"
   version="1.1"
   id="svg2"
   xmlns="http://www.w3.org/2000/svg"
   xmlns:svg="http://www.w3.org/2000/svg">
  <defs
     id="defs2" />
  <path
     d="m 216.68,389 v -3.65 h 11.315 q 10.22,0 16.425,-4.745 6.57,-4.745 6.57,-18.98 V 155.4 q 0,-13.87 -6.57,-18.615 -6.205,-4.745 -16.425,-4.745 H 216.68 v -3.65 h 110.23 q 50.005,0 73.73,17.52 23.725,17.52 23.725,50.37 0,20.075 -8.03,33.58 -7.665,13.505 -20.44,21.9 -12.775,8.395 -27.01,13.14 l 44.53,73 q 12.41,20.44 19.71,30.66 7.665,10.22 12.775,13.505 5.475,3.285 10.95,3.285 h 0.73 V 389 h -9.125 q -22.265,0 -36.5,-2.555 -13.87,-2.555 -23.36,-9.855 -9.49,-7.3 -18.25,-21.9 l -50.37,-87.6 H 300.63 v 94.535 q 0,14.235 6.205,18.98 6.205,4.745 16.79,4.745 H 334.94 V 389 Z M 322.895,263.44 q 25.915,0 37.23,-14.965 11.315,-15.33 11.315,-50.005 0,-35.405 -11.68,-50.735 Q 348.445,132.04 322.165,132.04 H 300.63 v 131.4 z"
     id="text1"
     style="font-weight:600;font-size:365px;font-family:'Noto Serif Display';fill:#ffffff"
     aria-label="R" />
  <path
     d="m 34.73,389 v -3.65 h 13.505 q 10.585,0 16.79,-5.84 6.57,-6.205 12.045,-21.535 L 159.56,128.39 h 29.2 l 85.41,233.235 q 5.11,13.505 10.585,18.615 5.475,5.11 14.965,5.11 h 2.555 V 389 H 189.49 v -3.65 h 15.33 q 10.585,0 15.33,-2.92 5.11,-2.92 5.11,-9.855 0,-6.935 -3.65,-17.885 L 200.075,294.1 H 104.08 l -20.44,56.94 q -2.555,6.205 -4.015,11.315 -1.095,4.745 -1.095,8.395 0,8.03 6.205,11.315 6.205,3.285 18.98,3.285 H 123.06 V 389 Z m 70.81,-98.55 h 93.44 L 174.525,221.1 q -5.11,-15.33 -10.95,-33.945 -5.84,-18.615 -9.855,-32.85 -4.38,14.235 -10.585,30.66 -5.84,16.425 -11.315,32.12 z"
     id="text2"
     style="font-weight:600;font-size:365px;font-family:'Noto Serif Display';fill:#ffffff"
     aria-label="A" />
</svg>
